<?xml version="1.0" encoding="UTF-8"?>
<!DOCTYPE svg PUBLIC "-//W3C//DTD SVG 1.1//EN" "http://www.w3.org/Graphics/SVG/1.1/DTD/svg11.dtd">
<!-- Creator: CorelDRAW -->
<svg xmlns="http://www.w3.org/2000/svg" xml:space="preserve" width="128.833mm" height="79.2316mm" version="1.1" style="shape-rendering:geometricPrecision; text-rendering:geometricPrecision; image-rendering:optimizeQuality; fill-rule:evenodd; clip-rule:evenodd"
viewBox="0 0 12914.76 7942.51"
 xmlns:xlink="http://www.w3.org/1999/xlink"
 xmlns:xodm="http://www.corel.com/coreldraw/odm/2003">
 <defs>
  <style type="text/css">
   <![CDATA[
    .fil1 {fill:#767E45;fill-rule:nonzero}
    .fil0 {fill:#30582F;fill-rule:nonzero}
   ]]>
  </style>
 </defs>
 <g id="Camada_x0020_1">
  <metadata id="CorelCorpID_0Corel-Layer"/>
  <path class="fil0" d="M0.01 3960.02l2982.39 -2726.35c50.42,-45.47 89.82,-95.83 89.82,-162.99l0 -312.41c-326.83,70.23 -1525.81,637.01 -3072.21,159.81l0 -918.08 4398.18 0 0 1205.66 -3102.86 2773.25c-53.9,40.74 -91.03,96.04 -91.03,163.7l0 314.49c239.94,-52.97 1704.58,-626.09 3226.15,-162.92l0 918.05 -4430.43 0 0 -1252.2z"/>
  <path class="fil0" d="M7518.58 3116.37c0,-778.99 -353.68,-1299.2 -1242.45,-1178.57 -381.86,51.85 -679.52,361.07 -726.58,743.56 -115.29,937.39 96.18,1609.84 970.1,1609.84 710.49,0 998.92,-478.38 998.92,-1174.83zm-3046.11 0c0,-1167.79 773.84,-2047.15 2047.19,-2047.15 1315.5,0 2047.15,893.41 2047.15,2047.15 0,1153.75 -773.88,2040.11 -2047.15,2040.11 -1315.58,0 -2047.19,-851.2 -2047.19,-2040.11z"/>
  <path class="fil0" d="M11866.53 3116.37c0,-778.99 -353.67,-1299.2 -1242.44,-1178.57 -381.86,51.85 -679.53,361.07 -726.59,743.56 -115.29,937.39 96.19,1609.84 970.1,1609.84 710.5,0 998.92,-478.38 998.92,-1174.83zm-3046.11 0c0,-1167.79 773.84,-2047.15 2047.19,-2047.15 1315.51,0 2047.15,893.41 2047.15,2047.15 0,1153.75 -773.87,2040.11 -2047.15,2040.11 -1315.58,0 -2047.19,-851.2 -2047.19,-2040.11z"/>
  <path class="fil1" d="M328.35 7275.13c160.2,202.88 323.05,301.65 589.98,301.65 210.91,0 323.05,-104.11 323.05,-242.91 0,-192.24 -237.61,-226.93 -496.54,-269.66 -339.08,-58.73 -667.39,-144.17 -667.39,-547.25 0,-317.67 258.89,-587.32 731.43,-587.32 349.71,0 608.68,101.46 832.92,387.09l-344.37 258.97c-128.16,-181.52 -272.3,-282.99 -528.59,-282.99 -213.56,0 -323.02,112.14 -323.02,232.24 0,96.12 48.07,160.2 141.49,189.55 96.08,29.39 216.25,56.09 360.4,80.11 314.99,50.71 662.01,144.14 662.01,547.25 0,178.88 -64.05,325.7 -194.85,435.15 -130.78,109.42 -307,165.5 -528.59,165.5 -413.76,0 -704.74,-146.83 -886.29,-392.43l328.35 -274.96z"/>
  <path class="fil1" d="M2770.93 7248.43l0 -90.78c-34.69,42.71 -117.45,72.07 -274.95,106.8 -258.94,56.05 -363.05,101.42 -363.05,229.58 0,109.46 80.11,160.16 232.24,160.16 269.62,0 405.77,-242.91 405.77,-405.76zm-536.58 -1097.2c0,32 2.69,61.39 5.34,85.4l-224.25 -29.31c-2.65,-18.71 -2.65,-29.39 -2.65,-42.72 0,-234.95 114.79,-371.07 266.96,-371.07 178.84,0 296.31,197.55 400.43,197.55 45.37,0 74.72,-26.71 74.72,-130.82 0,-24.05 0,-42.71 -2.69,-66.73l221.59 29.35c2.69,18.68 2.69,42.72 2.69,56.06 0,234.96 -112.14,357.7 -261.62,357.7 -181.53,0 -296.35,-197.54 -403.12,-197.54 -45.37,0 -77.41,34.73 -77.41,112.14zm-493.85 1412.22c0,-170.88 74.72,-269.65 184.17,-341.72 106.8,-66.73 253.64,-112.13 541.96,-168.15 122.78,-24.09 202.87,-50.75 237.57,-77.45 37.38,-29.39 56.06,-64.09 56.06,-109.49 0,-96.05 -74.76,-173.49 -266.93,-173.49 -192.24,0 -312.37,106.76 -365.73,277.64l-352.41 -101.46c125.48,-328.32 405.77,-480.53 736.78,-480.53 371.11,0 619.37,181.56 619.37,563.28l0 512.57c0,138.84 40.03,178.91 138.84,178.91 40.03,0 74.72,-10.72 104.1,-21.4l0 250.94c-53.39,34.73 -146.83,66.73 -256.27,66.73 -237.61,0 -341.69,-106.8 -355.06,-339 -93.44,213.56 -296.31,339 -549.91,339 -288.36,0 -472.53,-141.48 -472.53,-376.38z"/>
  <path class="fil1" d="M4546.12 7165.68c0,-266.96 -109.49,-453.83 -379.09,-453.83 -264.27,0 -379.07,189.52 -379.07,453.83 0,266.93 101.43,445.81 379.07,445.81 269.61,0 379.09,-181.53 379.09,-445.81zm-1155.94 0c0,-443.18 293.67,-776.87 776.84,-776.87 499.2,0 776.83,339.07 776.83,776.87 0,437.78 -293.66,774.16 -776.83,774.16 -499.2,0 -776.84,-323.02 -776.84,-774.16z"/>
  <path class="fil1" d="M6102.35 6324.75l0 715.45 416.44 0c277.61,0 435.15,-112.14 435.15,-357.74 0,-256.28 -165.53,-357.71 -421.82,-357.71l-429.78 0zm0 1017.11l0 571.3 -392.44 0 0 -1948.8 819.56 0c264.27,0 464.51,61.39 600.62,186.86 136.15,122.82 205.57,285.68 205.57,485.87 0,437.81 -314.99,704.77 -776.84,704.77l-456.47 0z"/>
  <path class="fil1" d="M8432.77 7248.43l0 -90.78c-34.69,42.71 -117.45,72.07 -274.95,106.8 -258.94,56.05 -363.05,101.42 -363.05,229.58 0,109.46 80.07,160.16 232.24,160.16 269.62,0 405.77,-242.91 405.77,-405.76zm-1030.43 315.02c0,-170.88 74.72,-269.65 184.17,-341.72 106.8,-66.73 253.63,-112.13 541.95,-168.15 122.79,-24.09 202.88,-50.75 237.58,-77.45 37.38,-29.39 56.06,-64.09 56.06,-109.49 0,-96.05 -74.76,-173.49 -266.93,-173.49 -192.24,0 -312.37,106.76 -365.77,277.64l-352.37 -101.46c125.48,-328.32 405.77,-480.53 736.82,-480.53 371.07,0 619.33,181.56 619.33,563.28l0 512.57c0,138.84 40.03,178.91 138.84,178.91 40.03,0 74.72,-10.72 104.1,-21.4l0 250.94c-53.4,34.73 -146.83,66.73 -256.27,66.73 -237.62,0 -341.69,-106.8 -355.06,-339 -93.44,213.56 -296.32,339 -549.95,339 -288.32,0 -472.49,-141.48 -472.49,-376.38z"/>
  <path class="fil1" d="M10490.93 6418.19l0 1494.97 -387.09 0 0 -336.38c-98.77,242.91 -280.29,365.73 -493.85,365.73 -344.41,0 -528.59,-237.61 -528.59,-592.62l0 -931.7 389.75 0 0 822.24c0,237.58 82.75,376.42 306.99,376.42 210.88,0 323.02,-189.55 323.02,-456.51l0 -742.15 389.78 0z"/>
  <polygon class="fil1" points="11163.55,7913.15 10773.8,7913.15 10773.8,5788.16 11163.55,5788.16 "/>
  <path class="fil1" d="M12517 7165.68c0,-266.96 -109.49,-453.83 -379.09,-453.83 -264.28,0 -379.07,189.52 -379.07,453.83 0,266.93 101.43,445.81 379.07,445.81 269.61,0 379.09,-181.53 379.09,-445.81zm-1155.94 0c0,-443.18 293.67,-776.87 776.84,-776.87 499.2,0 776.83,339.07 776.83,776.87 0,437.78 -293.66,774.16 -776.83,774.16 -499.21,0 -776.84,-323.02 -776.84,-774.16z"/>
 </g>
</svg>
